<?xml version="1.0" standalone="no"?>
<!DOCTYPE svg PUBLIC "-//W3C//DTD SVG 20010904//EN"
 "http://www.w3.org/TR/2001/REC-SVG-20010904/DTD/svg10.dtd">
<svg version="1.0" xmlns="http://www.w3.org/2000/svg"
 width="1800.000000pt" height="2400.000000pt" viewBox="0 0 1800.000000 2400.000000"
 preserveAspectRatio="xMidYMid meet">
<metadata>
Created by potrace 1.16, written by Peter Selinger 2001-2019
</metadata>
<g transform="translate(0.000000,2400.000000) scale(0.100000,-0.100000)"
fill="#000000" stroke="none">
<path d="M8257 22260 c-51 -10 -55 -17 -24 -46 15 -14 27 -31 27 -38 0 -7 10
-26 22 -42 13 -16 21 -39 20 -54 -3 -22 3 -30 29 -40 17 -8 43 -24 57 -37 26
-24 36 -25 179 -27 48 -1 73 3 73 10 0 30 27 35 132 24 130 -14 191 -29 184
-45 -2 -7 4 -15 15 -18 23 -6 25 -23 2 -31 -21 -9 -117 20 -133 39 -7 8 -27
15 -44 15 -17 0 -48 5 -69 11 -38 10 -81 4 -72 -11 2 -4 34 -11 71 -15 83 -9
136 -30 132 -52 -4 -23 -78 -27 -126 -7 -22 9 -69 15 -117 16 -47 0 -91 6
-107 15 -16 8 -39 11 -53 7 -20 -5 -33 0 -51 17 -16 15 -35 23 -50 21 -14 -2
-30 1 -37 6 -7 5 -41 17 -75 26 -56 15 -65 16 -75 3 -7 -8 -36 -17 -66 -21
-30 -3 -59 -10 -65 -16 -5 -5 -29 -10 -53 -10 -24 0 -43 -5 -43 -10 0 -7 -20
-9 -54 -5 -48 4 -54 3 -59 -16 -6 -24 1 -49 14 -49 5 0 9 -6 9 -14 0 -17 71
-16 92 1 18 16 163 30 154 15 -4 -6 3 -16 14 -22 36 -19 22 -32 -32 -30 -82 3
-98 1 -98 -11 0 -6 10 -19 23 -29 30 -24 14 -37 -26 -21 -60 25 -137 31 -164
14 l-24 -16 38 -25 c21 -14 40 -27 43 -29 8 -7 -24 -23 -48 -23 -19 0 -22 -4
-17 -20 6 -18 2 -20 -44 -20 -29 0 -62 7 -80 18 -23 13 -35 14 -48 6 -25 -16
-27 -34 -4 -34 12 0 21 -4 21 -9 0 -15 -22 -25 -55 -26 -96 -4 -97 -4 -90 -24
4 -14 -1 -23 -17 -32 -34 -17 -68 -50 -68 -66 0 -10 26 -13 114 -13 73 0 128
-5 154 -14 35 -13 42 -13 53 0 6 8 27 14 45 14 42 0 44 15 4 38 -30 17 -48 42
-30 42 6 0 10 11 10 25 0 14 4 25 8 25 15 0 44 -38 38 -49 -9 -14 14 -25 27
-12 7 7 7 18 -2 37 -10 24 -10 26 6 19 28 -11 84 -26 122 -32 26 -4 38 -1 47
12 11 14 21 16 51 10 70 -13 97 -11 125 11 15 12 33 24 39 26 9 3 9 9 0 25
-14 27 -4 53 20 53 12 0 19 -7 19 -20 0 -11 7 -20 15 -20 14 0 19 11 16 37 -1
9 4 9 23 0 18 -9 24 -18 20 -33 -5 -19 -1 -23 59 -52 12 -6 7 32 -6 49 -7 9
-19 18 -27 21 -9 3 -10 7 -3 11 6 4 22 -2 36 -13 43 -34 88 -18 47 17 -12 10
-32 33 -46 51 -41 53 -2 39 63 -23 57 -55 73 -60 73 -24 0 23 25 26 34 3 3 -9
12 -14 20 -11 8 3 16 -2 19 -14 3 -10 10 -19 17 -19 6 0 8 5 4 12 -4 7 -11 30
-15 53 -4 22 -10 50 -14 63 -7 21 -6 21 21 -5 16 -16 35 -41 42 -56 12 -27 15
-29 60 -24 99 10 132 17 155 32 14 8 37 15 53 14 16 -1 40 3 54 8 14 6 36 9
50 8 14 -1 31 -3 38 -4 7 0 18 -14 23 -31 6 -16 15 -30 21 -30 5 0 6 5 3 10
-11 17 15 40 45 40 22 0 27 4 23 18 -3 14 1 19 19 18 17 -1 24 5 26 22 5 31
14 28 53 -17 18 -22 37 -37 41 -35 13 8 9 51 -6 63 -8 7 -17 40 -21 74 -4 35
-21 94 -40 137 -18 41 -40 91 -48 110 -15 38 -92 89 -110 71 -10 -10 10 -54
22 -47 14 9 38 -18 45 -48 7 -27 6 -28 -10 -15 -18 15 -18 9 2 -120 9 -55 -5
-49 -36 16 -12 26 -36 61 -52 78 l-31 30 6 -42 c5 -40 3 -43 -18 -43 -15 0
-32 11 -46 31 -20 28 -26 31 -61 26 -31 -4 -40 -2 -45 11 -12 39 -25 58 -50
69 -47 23 -40 2 19 -54 24 -23 25 -26 11 -43 -19 -21 -53 -15 -53 10 0 25 -56
70 -86 70 -14 0 -41 16 -65 37 -36 32 -43 35 -61 24 -17 -11 -24 -9 -47 11
-14 12 -31 28 -37 35 -12 14 -53 17 -101 7 -22 -4 -33 -2 -33 5 0 12 -63 13
-123 1z"/>
<path d="M9893 22214 c7 -43 -26 -116 -49 -107 -8 3 -14 -1 -14 -11 0 -9 -5
-25 -12 -35 -10 -17 -13 -18 -27 -3 -15 14 -16 14 -19 -7 -2 -12 1 -28 7 -35
16 -19 25 -92 12 -100 -7 -5 -11 2 -11 16 0 13 -6 33 -14 44 -8 11 -17 46 -21
79 -8 58 -29 125 -41 125 -3 0 -2 -15 2 -32 9 -41 5 -167 -6 -188 -10 -19 21
-256 39 -287 6 -13 19 -23 27 -23 10 0 14 -6 10 -15 -3 -9 3 -19 15 -25 15 -9
21 -7 25 5 3 8 15 15 26 15 18 0 20 -5 15 -40 -3 -22 -4 -40 -2 -40 1 0 22 18
45 40 23 22 46 40 50 40 4 0 7 -17 6 -37 -1 -28 -6 -39 -20 -43 -11 -3 -21
-12 -24 -20 -3 -12 -2 -12 6 -2 10 15 43 13 54 -2 8 -12 40 12 33 24 -8 14 34
-1 46 -16 16 -19 39 -17 41 4 0 9 2 22 2 29 2 17 37 53 47 48 4 -3 4 -18 0
-33 -13 -43 -1 -95 27 -118 13 -12 21 -27 18 -33 -4 -6 -3 -11 3 -11 11 0 23
32 19 51 -2 7 9 19 25 26 15 8 27 20 27 28 0 15 47 75 60 75 12 0 -1 -48 -16
-61 -18 -15 -18 -25 1 -33 19 -7 55 14 55 31 0 7 8 17 19 22 20 11 71 101 71
126 0 26 -14 16 -43 -30 -16 -25 -35 -45 -43 -45 -21 0 -17 13 21 62 20 26 37
60 39 79 2 19 9 49 14 67 13 41 7 39 -49 -14 -50 -47 -72 -80 -63 -95 3 -6 3
-22 -1 -36 -6 -24 -7 -25 -22 -10 -11 11 -16 31 -15 59 3 58 -7 72 -42 58 -15
-6 -30 -19 -33 -30 -3 -11 -9 -20 -15 -20 -5 0 -4 9 2 21 7 11 9 32 5 46 -3
15 0 34 9 48 13 20 13 28 -6 79 -12 31 -25 53 -29 49 -4 -4 -9 -46 -10 -93 -4
-179 -23 -218 -32 -67 -7 111 -22 171 -43 163 -11 -4 -14 6 -14 52 0 40 -6 64
-20 82 -10 14 -22 22 -25 18 -4 -3 -12 -38 -19 -77 -9 -55 -14 -69 -23 -60
-10 10 -14 8 -19 -7 -17 -53 -27 -74 -36 -74 -7 0 -8 13 -3 33 34 149 33 219
-1 269 -34 48 -48 49 -41 2z"/>
<path d="M7538 21903 c-9 -2 -15 -10 -13 -16 3 -7 -17 -19 -51 -30 -95 -30
-149 -77 -157 -137 -3 -15 -32 -49 -77 -90 -48 -44 -71 -72 -69 -84 4 -16 8
-15 44 10 22 15 60 38 85 52 25 14 85 51 135 84 49 32 97 58 106 58 9 0 37 11
63 25 33 18 63 25 100 25 79 0 102 35 44 70 -21 12 -37 16 -47 10 -10 -5 -19
-3 -26 5 -10 13 -105 25 -137 18z"/>
<path d="M10613 21814 c-3 -8 -1 -25 5 -37 21 -41 13 -135 -10 -121 -5 3 -7
13 -4 21 3 8 1 11 -4 8 -6 -3 -10 -12 -10 -19 0 -8 -9 -16 -20 -19 -11 -3 -20
-11 -19 -19 0 -10 2 -10 6 0 2 6 9 12 14 12 11 0 0 -52 -13 -61 -7 -5 -48 -78
-48 -86 0 -2 6 -3 13 -3 6 0 18 14 25 30 8 17 21 30 32 30 24 0 33 -25 14 -40
-8 -7 -14 -22 -14 -34 1 -18 4 -17 29 14 21 25 26 38 19 47 -10 12 -8 21 27
131 15 45 16 57 5 78 -8 13 -17 24 -21 24 -5 0 -6 14 -2 30 6 32 -13 43 -24
14z"/>
<path d="M10873 21755 c4 -38 9 -85 13 -103 11 -56 -15 -182 -44 -209 -13 -12
-22 -28 -19 -35 2 -7 -7 -26 -19 -41 -27 -33 -31 -52 -8 -43 8 3 12 2 9 -4 -3
-6 1 -10 9 -10 9 0 16 7 16 15 0 8 8 15 18 15 10 0 23 5 29 11 6 6 22 17 35
23 36 18 53 63 39 101 -6 18 -13 50 -15 71 -1 22 -8 62 -14 89 -6 28 -16 77
-22 110 -15 89 -33 96 -27 10z"/>
<path d="M10686 21598 c-10 -24 -22 -51 -27 -60 -5 -10 -9 -25 -9 -34 0 -8
-14 -27 -30 -41 -17 -14 -35 -34 -41 -46 -10 -17 -9 -19 7 -13 10 4 21 1 25
-6 6 -9 12 -8 27 5 10 9 31 17 45 17 17 0 27 5 27 15 0 8 5 15 10 15 14 0 8
166 -6 180 -7 7 -16 -3 -28 -32z"/>
<path d="M10825 21625 c-4 -11 -14 -27 -20 -35 -7 -8 -15 -37 -18 -65 -4 -36
-11 -54 -29 -67 -53 -41 -72 -68 -47 -68 7 0 18 -8 25 -17 13 -17 16 -16 45
16 18 19 29 40 26 51 -2 9 4 22 14 28 24 15 32 66 21 127 -7 40 -11 46 -17 30z"/>
<path d="M11059 21618 c-1 -7 -1 -16 0 -20 0 -5 -3 -8 -9 -8 -5 0 -10 6 -11
13 0 6 -5 1 -11 -13 -10 -23 -11 -23 -15 -5 -3 11 -9 24 -14 29 -12 14 -22
-19 -15 -50 5 -19 10 -23 19 -15 10 8 13 2 13 -27 0 -51 21 -163 33 -175 7 -7
18 -7 34 0 30 14 61 -1 37 -17 -8 -5 -27 -10 -41 -10 -41 0 -59 -29 -59 -93 0
-69 9 -71 71 -22 24 19 49 35 54 35 6 -1 1 -8 -10 -16 -15 -12 -16 -18 -7 -21
22 -8 -16 -42 -54 -49 -45 -8 -50 -19 -19 -40 19 -12 23 -20 15 -29 -9 -10 1
-17 41 -29 29 -8 56 -13 60 -10 4 2 9 -1 11 -8 3 -9 15 -10 49 -2 24 5 52 8
62 6 28 -6 1 -32 -33 -32 -17 0 -30 -7 -34 -16 -4 -9 -5 -18 -4 -19 14 -14 98
0 109 18 4 5 21 11 38 12 38 3 32 -9 -15 -31 -48 -23 -35 -29 33 -14 50 10 60
16 74 44 14 26 15 43 8 81 -5 26 -13 53 -18 59 -5 6 -5 20 0 31 15 39 9 48
-16 21 -14 -15 -25 -31 -25 -35 0 -5 -7 -12 -16 -15 -9 -3 -14 -13 -11 -20 3
-8 -1 -20 -8 -26 -11 -9 -19 -6 -39 15 -24 26 -24 29 -11 56 20 39 19 67 -2
65 -15 -1 -17 6 -15 37 3 36 2 37 -23 31 -17 -4 -25 -2 -25 7 0 19 -42 37 -80
34 -29 -3 -31 -1 -26 21 5 20 3 24 -14 24 -13 0 -19 4 -14 11 5 8 -1 10 -20 7
-31 -6 -33 4 -8 53 l18 35 -31 -4 c-16 -3 -36 -9 -42 -14 -24 -19 -14 8 11 32
28 25 41 69 31 100 -7 22 -24 27 -26 8z"/>
<path d="M6332 20505 c-7 -14 -12 -41 -12 -58 0 -18 -4 -37 -10 -43 -12 -12
-40 -163 -40 -216 0 -20 5 -40 10 -43 6 -3 10 1 10 9 0 9 18 28 40 42 22 15
38 29 35 32 -3 3 0 11 6 18 14 18 1 60 -14 45 -6 -6 -15 -11 -20 -11 -11 0 2
42 17 55 26 22 83 101 88 122 5 17 1 22 -23 25 -16 3 -29 1 -29 -4 0 -4 -7 -8
-15 -8 -10 0 -15 10 -15 30 0 37 -13 39 -28 5z"/>
<path d="M6483 18776 c7 -18 -31 -49 -50 -41 -9 3 -24 -2 -34 -11 -17 -15 -19
-15 -25 0 -8 22 -31 20 -44 -4 -6 -11 -15 -20 -21 -20 -6 0 -7 5 -4 10 8 13
-11 13 -36 0 -11 -7 -19 -21 -19 -37 0 -30 -26 -64 -44 -57 -7 3 -18 -2 -25
-10 -31 -38 3 -30 122 29 71 34 154 68 185 74 84 18 95 22 86 31 -17 15 -62
20 -68 7 -4 -8 -5 -7 -5 3 2 29 -1 40 -12 40 -6 0 -9 -6 -6 -14z"/>
<path d="M7645 18739 c-60 -4 -153 -13 -205 -20 -52 -6 -104 -13 -115 -14 -97
-13 -191 -28 -248 -41 -72 -17 -141 -13 -173 10 -10 8 -25 11 -32 8 -28 -10
60 -52 109 -52 49 0 70 -19 49 -44 -5 -7 -12 -64 -16 -127 -7 -128 -33 -214
-68 -225 -31 -10 -118 -7 -151 6 -49 19 -124 30 -235 36 -58 2 -116 8 -130 11
-14 3 -32 7 -40 9 -47 9 -94 24 -103 33 -14 14 -53 14 -78 1 -36 -20 -17 -172
26 -202 11 -8 34 28 35 55 0 10 5 15 10 12 6 -3 15 -3 22 1 8 5 6 9 -7 14 -10
4 -14 9 -9 13 17 10 74 -25 80 -49 3 -13 13 -24 20 -24 8 0 34 -10 56 -21 38
-19 52 -21 138 -15 52 3 114 9 138 12 40 6 132 -13 132 -26 0 -4 10 -17 23
-30 12 -14 23 -28 23 -32 1 -5 2 -13 3 -19 0 -7 12 -9 26 -7 16 3 25 1 25 -7
0 -13 36 -30 85 -39 25 -5 32 -2 42 20 7 15 10 52 8 90 -2 35 0 64 5 64 5 0
16 -26 25 -57 18 -61 27 -104 71 -343 51 -276 123 -472 209 -568 280 -311
1121 -418 1581 -203 45 22 115 60 156 86 101 66 264 232 318 326 24 40 53 88
65 104 12 17 57 101 100 188 43 87 90 175 106 197 66 91 220 119 288 52 30
-30 63 -96 111 -222 18 -47 47 -125 66 -175 18 -49 34 -102 34 -117 0 -15 5
-30 10 -33 6 -3 10 -14 10 -24 0 -10 7 -24 15 -31 8 -7 15 -20 15 -29 0 -9 7
-27 14 -41 8 -14 22 -40 31 -57 17 -33 35 -44 35 -21 0 12 12 0 109 -108 48
-52 140 -118 231 -164 324 -164 882 -178 1227 -30 130 55 160 81 278 240 46
63 129 227 172 340 60 156 88 233 115 315 16 49 49 132 74 185 25 52 52 122
59 155 7 33 21 95 30 137 10 42 15 83 12 92 -10 26 -83 65 -164 87 -120 33
-153 40 -358 78 -65 13 -142 31 -170 42 -27 11 -70 22 -95 25 -25 3 -50 12
-57 21 -7 9 -13 11 -18 4 -9 -16 -25 -14 -25 3 0 7 -14 16 -31 20 -34 6 -53 0
-44 -15 4 -5 0 -9 -7 -9 -7 0 -119 -2 -248 -5 -324 -7 -567 -33 -800 -86 -52
-11 -111 -23 -130 -26 -19 -3 -39 -9 -45 -13 -5 -4 -23 -8 -38 -8 -16 0 -38
-4 -50 -10 -46 -22 -217 -72 -268 -79 -177 -22 -453 23 -709 117 -324 118
-646 198 -945 235 -71 8 -143 18 -160 21 l-30 5 33 -17 c40 -21 41 -31 2 -39
-31 -7 -100 10 -100 25 0 4 15 11 33 16 78 19 -362 29 -588 13z m922 -100 c56
-13 105 -27 109 -32 4 -4 -32 -4 -82 -1 -97 8 -98 8 -133 6 -43 -3 -18 -10
107 -32 298 -50 587 -150 707 -244 75 -58 97 -84 90 -107 -6 -18 -4 -20 13
-15 15 5 24 1 32 -15 7 -13 8 -19 2 -15 -18 11 -41 -33 -33 -62 5 -15 6 -33 4
-40 -3 -7 1 -19 7 -27 9 -11 9 -15 1 -15 -6 0 -11 -11 -11 -25 0 -14 5 -25 10
-25 6 0 10 -4 10 -9 0 -5 -9 -7 -20 -4 -18 5 -19 1 -16 -46 2 -28 0 -51 -5
-51 -5 0 -8 -18 -6 -39 2 -21 -3 -47 -10 -57 -7 -10 -13 -34 -13 -54 0 -20 -6
-42 -12 -48 -10 -10 -10 -15 -1 -20 18 -11 6 -83 -18 -105 -11 -10 -22 -32
-26 -48 -3 -16 -13 -35 -23 -42 -30 -22 -42 -54 -25 -70 16 -16 8 -28 -27 -40
-10 -4 -18 -16 -18 -28 0 -20 -31 -65 -80 -115 -11 -12 -20 -25 -21 -30 -1
-17 -112 -97 -194 -141 -98 -51 -158 -71 -245 -79 -36 -3 -72 -10 -80 -16 -10
-6 -2 -7 25 -3 63 9 230 23 233 20 7 -6 -127 -44 -198 -56 -106 -19 -371 -16
-510 5 -121 18 -259 52 -349 86 -59 23 -212 112 -231 135 -27 32 -2 23 56 -20
32 -25 69 -45 81 -45 12 0 56 -14 97 -30 91 -37 248 -77 358 -91 80 -11 123
-6 52 6 -152 25 -355 77 -430 110 -31 14 -62 25 -68 25 -15 0 -80 53 -139 115
-92 95 -164 287 -187 497 -23 221 -6 431 47 573 21 54 40 83 85 128 37 38 64
57 73 53 8 -3 15 -1 15 4 0 6 9 10 20 10 11 0 20 6 20 13 0 16 30 34 108 63
114 43 203 56 422 60 271 4 264 4 193 19 -35 8 -121 17 -193 21 -213 11 -150
25 98 21 196 -3 241 -7 329 -28z m-1232 -184 c30 -29 32 -56 6 -80 -18 -15
-26 -16 -73 -5 -85 20 -98 27 -98 54 0 31 26 47 56 36 16 -6 26 -5 34 6 18 21
48 17 75 -11z m4126 -11 c12 -7 11 -44 -1 -44 -5 0 -13 6 -17 14 -10 16 -123
31 -123 16 0 -5 5 -10 11 -10 5 0 8 -4 4 -10 -3 -5 -12 -7 -20 -3 -18 6 -19
-1 -5 -28 12 -21 14 -20 -67 -23 -48 -2 -58 -9 -50 -29 4 -12 15 -13 49 -6 24
4 62 8 84 9 23 0 55 7 70 15 16 8 41 15 57 15 17 0 27 5 27 15 0 11 12 15 45
15 42 0 66 19 28 21 -15 1 -16 2 -2 6 9 2 41 -7 70 -20 57 -25 100 -29 107 -9
2 6 -6 17 -17 24 -31 19 -25 31 12 24 133 -25 147 -28 147 -35 0 -3 16 -6 35
-7 43 -1 53 -9 37 -34 -10 -17 -9 -22 6 -31 13 -8 16 -21 14 -50 -4 -36 -5
-38 -18 -22 -12 17 -13 16 -14 -11 0 -21 4 -27 15 -22 19 7 19 -1 0 -21 -16
-15 -18 -90 -4 -99 4 -2 5 -20 2 -39 -4 -23 -2 -35 6 -35 13 0 15 23 12 95
l-3 50 27 -25 c15 -14 45 -57 66 -97 22 -39 46 -77 54 -83 11 -9 37 -10 111
-1 52 6 100 9 105 6 12 -8 12 -132 -1 -155 -10 -19 -11 -19 -48 1 -20 12 -45
28 -54 36 -29 26 -155 22 -189 -6 -23 -19 -24 -24 -24 -170 0 -83 3 -151 6
-151 10 0 19 29 13 43 -2 7 2 25 9 40 l14 27 26 -20 c20 -16 28 -34 33 -70 l6
-48 35 35 c21 20 41 32 50 29 8 -3 20 -3 26 1 25 15 47 10 47 -11 0 -74 -91
-287 -163 -384 -24 -31 -46 -64 -50 -73 -8 -23 -119 -107 -179 -136 -127 -61
-233 -82 -468 -89 -161 -5 -201 -3 -310 15 -253 43 -385 103 -524 239 -123
120 -186 237 -238 436 -29 114 -31 127 -26 261 5 129 8 148 37 216 41 97 92
163 171 221 36 25 81 60 100 76 66 56 149 84 187 63 14 -7 37 -6 79 3 70 16
284 45 369 50 69 4 193 -2 206 -10z"/>
<path d="M8440 18073 c0 -14 15 -29 33 -36 12 -5 17 -17 17 -47 0 -23 5 -50
10 -60 6 -11 6 -21 1 -24 -5 -4 -12 -24 -16 -45 -7 -45 -33 -72 -69 -75 -32
-1 -35 -26 -3 -26 12 0 39 5 60 11 32 9 42 18 58 55 25 55 26 126 3 182 -13
35 -14 46 -4 52 8 5 9 9 1 14 -6 4 -11 2 -11 -4 0 -7 -6 -8 -19 0 -23 12 -61
13 -61 3z"/>
<path d="M8133 18047 c-30 -6 -53 -16 -53 -23 0 -9 -11 -11 -37 -7 -25 4 -34
3 -29 -5 4 -7 -4 -14 -21 -18 -15 -4 -41 -19 -58 -35 -16 -15 -43 -31 -58 -35
-16 -3 -31 -13 -34 -21 -3 -8 -13 -11 -24 -8 -15 5 -18 3 -13 -12 6 -15 3 -14
-17 5 -21 19 -22 25 -11 43 8 12 12 23 9 25 -2 2 -28 -4 -58 -14 -49 -16 -54
-20 -51 -44 1 -15 -2 -29 -8 -33 -17 -11 -11 -25 15 -35 14 -5 25 -14 25 -20
0 -5 9 -10 20 -10 11 0 20 -6 20 -14 0 -7 -9 -16 -20 -19 -11 -3 -20 -10 -20
-16 0 -7 8 -7 25 -1 14 5 31 9 38 7 7 -1 13 5 13 13 1 8 2 21 3 28 0 6 6 12
12 12 6 0 17 7 26 15 11 12 29 14 71 10 54 -5 55 -4 33 11 l-22 16 22 24 c12
13 28 24 34 24 7 0 30 14 51 31 34 27 39 29 42 12 1 -10 10 -50 19 -90 18 -82
27 -89 123 -97 l55 -5 -35 15 c-73 33 -83 39 -86 54 -2 8 -6 26 -9 40 -4 14
-9 34 -12 46 -7 28 51 87 78 79 14 -5 19 -1 19 14 0 10 3 26 6 35 7 18 -2 18
-83 3z"/>
<path d="M10984 18022 c-20 -3 -39 -36 -29 -52 2 -4 31 -6 63 -4 53 3 60 1 70
-19 17 -35 24 -77 12 -77 -5 0 -10 5 -10 11 0 5 -4 7 -10 4 -10 -6 -14 -75 -4
-75 11 0 33 28 27 34 -4 3 -1 6 5 6 15 0 15 -11 -2 -33 -8 -10 -12 -27 -9 -38
4 -15 -2 -22 -26 -32 -17 -6 -31 -17 -31 -23 0 -12 -44 -24 -91 -24 -16 0 -29
-4 -29 -10 0 -6 35 -10 85 -10 l85 0 37 56 c35 53 37 61 38 137 0 53 4 82 12
84 14 5 56 -21 102 -64 35 -33 54 -39 85 -27 21 8 20 27 -2 39 -53 29 -141 65
-166 69 -10 1 -24 9 -30 18 -8 10 -22 14 -44 10 -18 -2 -32 0 -32 6 0 10 -68
19 -106 14z"/>
<path d="M10880 17932 c-8 -4 -15 -18 -15 -31 0 -29 -21 -40 -28 -14 -3 10 -4
1 -3 -19 0 -21 4 -38 9 -38 4 0 7 -6 7 -12 0 -7 12 -21 25 -31 32 -23 101 -14
108 15 3 11 10 17 15 14 13 -8 20 23 14 62 -7 47 -80 77 -132 54z"/>
<path d="M5921 15569 c-367 -10 -433 -20 -564 -85 -88 -44 -124 -71 -222 -164
-50 -48 -97 -84 -125 -95 -63 -24 -434 -153 -495 -172 -27 -8 -88 -34 -135
-58 -118 -59 -384 -197 -450 -233 -30 -17 -86 -38 -125 -46 -82 -19 -223 -61
-280 -84 -74 -31 -388 -194 -516 -269 -159 -94 -315 -234 -399 -358 -69 -102
-227 -314 -264 -354 -17 -18 -82 -69 -143 -113 -166 -117 -218 -190 -234 -325
-5 -43 -14 -97 -19 -121 -6 -23 -10 -66 -10 -95 0 -67 -19 -103 -127 -237 -47
-58 -94 -124 -104 -147 -25 -53 -53 -251 -46 -323 3 -41 17 -80 51 -143 57
-108 59 -145 17 -302 -89 -330 -106 -552 -75 -967 13 -175 14 -240 4 -363 -15
-200 -28 -284 -51 -321 -11 -18 -61 -59 -112 -93 -160 -106 -169 -113 -183
-147 -16 -39 -18 -179 -4 -274 6 -36 17 -110 26 -165 29 -187 52 -1012 35
-1241 -6 -87 -16 -217 -22 -289 -44 -587 -23 -1130 65 -1715 31 -203 35 -227
47 -315 6 -38 33 -182 61 -320 28 -137 56 -281 64 -320 42 -207 123 -538 216
-875 22 -80 46 -170 55 -200 16 -59 60 -207 98 -330 12 -41 35 -115 49 -165
15 -49 45 -142 67 -206 60 -179 79 -282 78 -440 -1 -129 5 -169 37 -269 26
-79 93 -203 149 -275 31 -38 109 -142 176 -230 66 -88 126 -167 132 -175 7 -9
55 -81 108 -161 53 -80 132 -188 175 -239 44 -52 103 -122 132 -157 63 -76
115 -115 179 -136 170 -55 555 -46 798 18 202 54 265 73 415 132 63 25 203 74
310 109 269 89 298 98 440 138 165 47 216 65 335 121 108 51 236 105 355 150
41 16 93 41 115 56 22 14 76 41 120 58 44 18 132 56 195 85 129 60 141 65 329
136 73 27 154 64 180 80 25 17 57 34 71 37 14 3 48 18 75 34 77 42 92 44 130
18 51 -35 69 -72 62 -129 -9 -78 -1 -82 125 -70 59 6 248 11 420 12 268 1 340
-1 498 -20 199 -24 536 -75 640 -96 118 -25 253 -45 370 -56 63 -6 151 -15
195 -20 44 -5 132 -14 195 -20 151 -14 435 -55 585 -85 66 -13 161 -29 210
-35 117 -15 328 -47 430 -65 86 -15 186 -29 330 -45 50 -5 182 -21 295 -34
496 -58 714 -73 1405 -91 331 -9 1058 -50 1076 -61 15 -9 540 -34 714 -34 207
0 333 12 438 40 114 32 154 57 213 137 29 39 87 109 129 155 91 99 115 142
153 279 16 58 36 118 45 135 9 18 51 62 94 100 166 145 276 265 315 345 101
203 102 409 3 639 -32 73 -37 96 -37 158 0 39 5 96 11 125 16 78 58 301 75
397 9 47 28 150 44 230 16 80 34 177 40 216 16 101 36 133 209 336 77 90 127
171 164 265 20 51 22 76 22 198 0 160 -17 238 -98 475 -86 249 -88 262 -56
520 11 85 22 184 26 220 4 36 13 110 20 165 24 173 35 450 36 877 0 227 4 436
9 463 26 137 51 355 46 396 -7 71 -60 195 -121 288 -30 46 -60 100 -65 120 -6
20 -17 126 -25 236 -20 275 -31 344 -82 545 -64 249 -60 303 34 459 35 58 49
121 38 170 -4 18 -46 84 -94 149 -186 249 -193 273 -108 386 73 97 91 138 91
217 1 56 -4 76 -36 140 -20 40 -62 103 -93 139 -213 246 -208 236 -180 336 53
187 66 244 76 326 12 99 19 126 74 268 45 115 59 245 32 297 -21 40 -66 77
-138 113 -32 17 -66 41 -76 55 -10 14 -35 47 -55 72 -25 32 -41 65 -49 102
-63 304 -123 426 -303 626 -71 79 -148 191 -205 300 -61 115 -82 145 -154 216
-85 85 -186 155 -321 224 -162 83 -271 142 -318 172 -21 12 -42 23 -48 23 -5
0 -10 3 -10 8 0 4 -10 12 -23 18 -12 6 -79 40 -148 75 -131 67 -174 87 -249
114 -25 9 -54 20 -65 25 -54 22 -278 76 -415 100 -25 5 -54 12 -65 16 -27 10
-154 106 -311 235 -173 142 -186 151 -290 183 -133 41 -143 43 -219 56 -38 6
-88 16 -110 21 -22 5 -146 14 -275 20 -129 5 -304 13 -389 18 -146 8 -155 7
-174 -12 -11 -11 -20 -31 -21 -46 -1 -14 -4 -30 -8 -36 -3 -5 -11 -36 -17 -68
-6 -32 -13 -63 -17 -68 -3 -5 -1 -16 5 -23 8 -10 7 -17 -4 -26 -8 -7 -15 -20
-15 -29 0 -9 -6 -28 -14 -43 -21 -39 -30 -88 -17 -88 6 0 11 -4 11 -10 0 -5
-7 -10 -15 -10 -8 0 -16 -8 -17 -17 0 -10 -2 -23 -2 -30 -1 -6 -9 -20 -19 -30
-9 -11 -17 -26 -17 -34 0 -18 -35 -71 -46 -70 -5 0 -9 -8 -9 -18 0 -11 -3 -23
-7 -27 -5 -4 -8 -14 -8 -22 0 -8 -17 -35 -37 -60 -26 -32 -37 -54 -35 -73 2
-17 -2 -29 -12 -32 -9 -4 -16 -13 -16 -21 0 -8 -4 -16 -9 -18 -5 -1 -17 -21
-28 -43 -14 -31 -24 -40 -43 -40 -22 0 -25 -4 -22 -32 2 -35 -4 -39 -58 -34
-20 2 -23 0 -12 -10 16 -17 15 -29 -3 -29 -8 0 -12 -6 -9 -15 9 -23 -5 -37
-27 -25 -20 11 -28 -3 -9 -15 6 -3 10 -19 10 -34 0 -20 -7 -31 -24 -39 -17 -7
-29 -25 -36 -50 -6 -24 -29 -59 -56 -87 -25 -27 -43 -54 -40 -61 7 -17 -20
-19 -28 -1 -3 6 -4 0 -1 -15 4 -20 0 -30 -14 -38 -17 -8 -20 -6 -23 12 -2 13
-11 24 -22 26 -11 2 -16 0 -12 -6 10 -16 -11 -94 -27 -104 -9 -4 -13 -16 -10
-26 2 -10 0 -30 -6 -45 -9 -23 -15 -26 -40 -21 -26 6 -30 3 -36 -25 -4 -17
-11 -28 -16 -25 -14 8 -49 -25 -49 -47 0 -10 -4 -21 -10 -24 -5 -3 -10 -2 -10
2 0 5 -9 9 -20 10 -11 1 -20 -4 -20 -12 0 -20 -28 -26 -33 -7 -4 14 -5 15 -6
1 0 -9 8 -26 19 -39 24 -27 25 -40 5 -40 -8 0 -15 -4 -15 -10 0 -5 -18 -13
-40 -16 -34 -6 -40 -10 -40 -30 0 -30 -7 -30 -37 -2 l-23 21 0 -25 c0 -14 6
-31 14 -38 8 -6 12 -18 10 -25 -7 -17 -34 -8 -34 11 0 18 -8 18 -26 -1 -11
-11 -12 -19 -4 -34 5 -11 10 -24 10 -29 0 -14 -43 -2 -53 15 -13 22 -37 15
-37 -11 0 -29 -18 -44 -26 -22 -11 28 -33 17 -54 -26 -11 -23 -20 -47 -20 -54
0 -7 -5 -16 -10 -19 -10 -6 -4 60 7 78 11 19 -11 4 -38 -25 -24 -27 -32 -31
-47 -21 -27 16 -68 5 -81 -23 -11 -24 -31 -33 -31 -14 0 6 -7 10 -15 10 -8 0
-15 5 -15 10 0 6 -13 10 -29 10 -21 0 -32 -6 -36 -20 -3 -11 -15 -20 -25 -20
-12 0 -20 -8 -22 -22 -3 -22 -4 -21 -21 6 -11 17 -16 34 -11 44 7 16 7 16 11
0 4 -18 33 -26 33 -10 0 11 -22 32 -35 32 -5 0 -19 -13 -29 -29 -13 -19 -27
-28 -43 -27 -13 0 -23 5 -23 9 0 5 -4 5 -10 2 -13 -8 -75 -16 -141 -19 -51 -2
-56 0 -52 19 2 13 1 15 -3 5 -4 -8 -20 -28 -36 -44 -15 -17 -28 -36 -28 -43 0
-7 -5 -13 -11 -13 -7 0 -9 8 -4 23 4 12 8 32 8 44 1 12 5 25 10 29 20 21 3 24
-19 4 -19 -19 -27 -21 -33 -12 -6 10 -15 9 -40 -5 -31 -17 -32 -17 -46 1 -14
19 -15 18 -41 -9 l-27 -29 -15 22 c-17 27 -30 28 -48 5 -12 -16 -13 -14 -8 15
4 21 3 32 -5 32 -6 0 -11 -4 -11 -9 0 -12 -47 -61 -60 -61 -6 0 -19 14 -29 31
-17 28 -20 29 -35 14 -23 -24 -21 -49 4 -42 11 3 20 0 20 -6 0 -7 -11 -13 -25
-13 -15 -1 -25 3 -25 12 0 7 -11 16 -25 20 -14 3 -29 13 -34 22 -7 13 -12 14
-24 3 -13 -10 -15 -9 -10 7 7 26 -12 36 -31 16 -15 -14 -16 -14 -16 6 0 19 -4
21 -25 16 -16 -4 -25 -2 -25 6 0 9 -3 9 -12 0 -23 -23 -40 -14 -33 18 7 31
-10 44 -21 15 -4 -8 -13 -15 -21 -15 -11 0 -14 8 -11 30 3 17 1 30 -4 30 -4 0
-8 -4 -8 -10 0 -18 -22 -10 -27 10 -6 24 -20 25 -44 4 -27 -25 -49 -11 -49 31
0 24 -4 35 -15 35 -8 0 -15 -4 -15 -10 0 -5 -4 -10 -9 -10 -5 0 -8 8 -7 18 1
12 -6 17 -26 17 -32 -1 -34 3 -12 33 19 28 8 45 -11 19 -7 -10 -22 -17 -32
-15 -16 3 -16 5 5 23 29 26 28 35 -7 35 -22 0 -31 -6 -41 -29 -6 -17 -9 -35
-5 -40 3 -6 -1 -11 -9 -11 -10 0 -16 9 -16 25 0 30 -15 33 -30 5 -14 -26 -30
-17 -30 17 0 22 -2 24 -16 12 -13 -11 -17 -10 -25 4 -6 9 -16 17 -24 17 -31 0
0 31 41 42 24 7 44 16 44 21 0 4 -9 6 -19 2 -11 -3 -22 -2 -25 4 -6 10 -44 4
-62 -10 -13 -11 -66 3 -72 19 -2 8 10 12 38 12 34 0 41 3 36 16 -3 9 -6 16 -6
17 0 1 -23 0 -51 -2 -28 -1 -61 1 -73 7 -11 6 -29 13 -38 16 -28 9 -22 29 6
22 14 -3 27 -2 30 3 6 9 -37 31 -62 31 -26 -1 -62 -36 -62 -60 0 -13 -5 -20
-12 -17 -7 2 -21 -3 -31 -11 -17 -15 -16 -17 19 -27 43 -12 58 -35 22 -35 -23
-1 -23 -1 -3 -16 11 -8 30 -12 43 -9 12 3 23 1 23 -5 1 -5 2 -16 3 -22 1 -7
13 -12 26 -11 14 1 38 -3 53 -9 24 -9 26 -13 14 -27 -31 -36 -32 -44 -3 -37
24 6 27 4 21 -14 -6 -18 -3 -19 38 -14 39 6 47 4 56 -14 9 -17 8 -23 -6 -31
-29 -16 -8 -23 34 -11 31 9 43 9 66 -3 24 -12 25 -16 12 -27 -25 -21 -18 -25
40 -25 l55 1 -6 -31 c-5 -30 -5 -31 34 -30 23 0 38 -4 36 -10 -6 -13 55 -40
84 -36 17 2 22 -3 22 -20 0 -16 3 -19 13 -11 27 22 52 17 82 -15 28 -31 30
-32 49 -15 14 12 20 14 23 5 3 -7 15 -13 28 -13 13 0 28 -7 33 -16 7 -12 20
-15 56 -13 30 3 46 0 46 -7 0 -20 28 -24 60 -7 24 11 37 13 58 5 30 -12 176
-9 206 3 11 5 27 3 38 -4 15 -9 23 -9 34 0 10 8 14 9 14 0 0 -9 5 -9 21 -1 11
7 27 9 35 6 9 -3 25 6 39 22 15 17 24 22 25 13 0 -8 -7 -23 -17 -33 -21 -24
-9 -36 15 -14 20 18 70 26 168 29 35 1 68 8 78 16 24 20 31 6 12 -24 -12 -18
-13 -25 -4 -25 17 0 68 47 69 63 0 7 4 2 10 -11 l9 -23 29 20 c19 14 31 17 33
10 3 -9 10 -9 27 0 14 8 37 10 57 7 24 -5 47 0 81 15 37 17 51 19 65 10 15 -9
19 -7 24 14 5 20 9 23 20 14 8 -6 11 -15 8 -20 -3 -5 2 -9 10 -9 9 0 16 7 16
15 0 14 29 35 49 35 6 0 8 -6 5 -14 -3 -8 -1 -17 5 -21 10 -5 15 7 12 28 0 4
8 7 19 7 11 0 25 9 32 20 7 11 21 20 31 20 10 0 30 12 44 28 17 17 24 21 20
10 -4 -12 -1 -18 8 -18 9 0 15 10 15 24 0 12 12 36 27 52 16 16 32 37 38 48
13 25 30 21 29 -7 -1 -12 3 -25 9 -29 25 -16 -239 -268 -383 -365 -111 -75
-329 -181 -437 -213 -159 -46 -445 -104 -487 -98 -16 2 -1 17 62 62 45 33 82
61 82 63 0 5 -39 -16 -85 -47 -42 -28 -86 -46 -120 -51 -11 -2 -117 -2 -235
-2 -193 1 -226 4 -322 26 -59 14 -112 28 -117 31 -5 4 -47 11 -93 17 -60 7
-93 17 -119 35 -19 13 -42 24 -50 24 -15 0 -29 9 -90 59 -17 13 -32 21 -35 18
-3 -3 40 -45 95 -93 103 -91 124 -116 71 -89 -16 8 -38 15 -48 15 -11 0 -25 6
-31 14 -6 8 -24 16 -39 19 -46 9 -184 44 -242 62 -250 75 -380 150 -503 291
-235 267 -390 615 -403 904 -1 25 -7 77 -13 115 -7 39 -13 161 -14 272 -2 194
-3 202 -21 197 -18 -6 -18 -5 -2 17 33 47 13 83 -30 54 -32 -21 -41 -14 -14
10 24 21 26 53 5 61 -8 4 -15 10 -15 16 0 5 5 6 10 3 6 -3 10 1 10 9 0 8 -6
19 -12 23 -16 10 -20 46 -6 54 6 4 -2 18 -18 34 -25 25 -31 40 -33 87 -1 9
-10 19 -20 23 -16 5 -19 12 -14 40 5 30 2 36 -18 44 -13 5 -19 10 -12 10 13 1
10 74 -4 94 -5 6 -10 25 -11 41 -1 17 -6 32 -11 35 -5 4 -12 23 -16 44 -5 27
-12 37 -26 37 -16 0 -17 3 -8 19 7 10 9 26 6 35 -6 14 -37 16 -299 14 -161 0
-421 -5 -577 -9z m5470 -7801 c5 -9 26 -22 46 -29 31 -10 38 -9 48 5 15 20 29
21 21 1 -3 -8 -1 -15 4 -15 6 0 10 5 10 10 0 6 7 10 15 10 8 0 15 -4 15 -10 0
-5 -4 -10 -10 -10 -5 0 -10 -5 -10 -11 0 -6 6 -9 13 -6 17 6 67 -21 67 -37 0
-10 -19 -16 -60 -21 -33 -4 -60 -11 -60 -16 0 -6 15 -7 36 -3 30 5 35 4 29 -7
-7 -11 -5 -11 9 1 16 13 20 11 40 -15 24 -33 26 -45 26 -134 1 -54 3 -64 20
-68 13 -4 20 -14 20 -30 0 -16 7 -27 20 -30 24 -6 24 -5 6 -65 -8 -25 -12 -49
-9 -52 4 -3 23 -6 44 -6 48 0 71 -31 44 -60 -9 -10 -14 -24 -10 -30 19 -31 22
-182 5 -262 -15 -68 -11 -132 24 -359 40 -266 36 -384 -14 -416 -16 -10 -51
-40 -79 -66 -28 -27 -55 -46 -60 -43 -5 3 -9 25 -9 48 -1 75 -14 159 -28 186
-8 15 -14 33 -14 40 0 22 -32 112 -41 118 -5 3 -9 18 -9 33 0 15 -7 36 -15 47
-8 10 -15 28 -15 40 0 11 -7 29 -15 40 -8 10 -15 29 -15 40 0 12 -7 27 -15 34
-8 7 -15 23 -15 35 0 12 -9 34 -20 48 -11 14 -20 31 -21 39 0 7 -13 36 -29 63
-16 28 -36 64 -45 80 -8 17 -26 48 -39 70 -14 22 -32 54 -40 70 -58 110 -210
327 -279 397 -66 67 -195 174 -259 214 -42 27 -47 40 -20 48 191 57 250 64
357 46 30 -4 55 -4 62 2 7 6 14 5 18 -2 5 -8 15 -4 31 11 14 13 31 20 43 16
12 -3 29 2 40 12 27 24 128 23 142 -1z"/>
<path d="M10450 15121 c0 -7 -15 -11 -37 -11 -77 2 -274 -13 -279 -21 -3 -5
37 -8 88 -8 121 0 144 -4 140 -24 -2 -12 2 -15 15 -10 10 4 21 11 25 17 4 6
12 5 21 -3 10 -8 17 -9 22 -1 8 13 55 13 55 0 0 -11 70 -14 71 -2 6 60 5 62
-27 62 -17 0 -46 3 -63 6 -20 4 -31 3 -31 -5z"/>
<path d="M7758 14017 c8 -10 11 -25 7 -38 -5 -15 -4 -19 4 -15 19 12 49 -3 55
-28 4 -15 21 -32 46 -44 23 -11 37 -22 31 -23 -5 -2 -12 -16 -16 -30 -5 -21
-2 -27 20 -37 28 -13 50 -8 39 10 -4 7 0 7 12 0 38 -20 74 -11 90 21 13 24 14
31 2 38 -7 5 -21 6 -30 3 -13 -4 -18 0 -18 15 0 14 -6 21 -20 21 -11 0 -28 4
-38 9 -9 5 -29 14 -45 22 -19 9 -24 15 -15 20 10 7 10 11 0 21 -11 11 -15 10
-23 -4 -14 -25 -27 -22 -40 6 -6 13 -19 27 -28 30 -9 3 -23 9 -31 13 -13 5
-13 4 -2 -10z"/>
<path d="M762 623 l3 -208 30 0 30 0 3 85 c3 92 18 120 67 120 36 0 44 -20 47
-116 l3 -89 33 -3 32 -3 0 115 c0 107 -2 117 -22 136 -23 21 -53 23 -133 9
-19 -4 -20 2 -21 76 l-1 80 -37 3 -36 3 2 -208z"/>
<path d="M410 612 l0 -200 33 1 32 2 3 65 c2 36 8 68 15 72 7 4 31 8 55 8 114
0 177 80 138 173 -20 50 -66 68 -183 75 l-93 5 0 -201z m188 112 c14 -10 22
-25 22 -44 0 -40 -35 -62 -92 -58 l-43 3 -3 44 c-2 24 -1 50 2 57 7 19 86 18
114 -2z"/>
<path d="M2004 797 c-2 -7 -3 -96 -2 -197 l3 -185 35 0 35 0 3 78 c3 74 4 77
27 77 19 0 34 -16 71 -72 26 -40 52 -76 58 -80 16 -11 76 -10 76 2 0 5 -22 42
-49 82 -43 63 -48 74 -34 83 48 31 56 43 60 92 5 45 2 54 -24 83 -33 36 -79
49 -186 50 -46 0 -69 -4 -73 -13z"/>
<path d="M1478 753 c-12 -3 -18 -14 -18 -34 0 -22 -6 -32 -25 -39 -31 -12 -36
-60 -6 -60 24 0 31 -19 31 -88 0 -31 3 -67 6 -79 7 -27 51 -45 95 -41 29 2 35
7 37 31 3 23 0 27 -21 27 -37 0 -48 22 -45 87 3 57 3 58 36 61 28 3 32 7 32
33 0 27 -3 29 -35 29 -34 0 -35 1 -35 40 0 41 -6 45 -52 33z"/>
<path d="M1143 660 c-88 -53 -84 -186 7 -232 129 -65 263 53 204 178 -33 69
-141 97 -211 54z m128 -59 c50 -40 17 -131 -48 -131 -32 0 -73 42 -73 75 0 33
41 75 73 75 14 0 35 -8 48 -19z"/>
<path d="M1708 658 c-77 -45 -86 -148 -18 -213 58 -55 183 -43 226 23 25 38
24 120 -1 154 -44 59 -140 75 -207 36z m129 -60 c33 -30 31 -80 -3 -107 -35
-27 -59 -26 -89 4 -30 30 -32 64 -4 99 25 32 64 34 96 4z"/>
<path d="M2403 660 c-90 -54 -81 -197 15 -237 47 -19 135 -12 164 14 48 43 62
117 33 174 -23 44 -71 69 -130 69 -32 0 -62 -7 -82 -20z m126 -57 c11 -10 24
-32 27 -50 5 -26 1 -37 -19 -57 -15 -15 -38 -26 -52 -26 -33 0 -75 42 -75 75
0 33 41 75 73 75 14 0 34 -8 46 -17z"/>
<path d="M2745 660 c-61 -40 -81 -116 -47 -179 45 -83 181 -95 246 -22 24 27
32 116 14 151 -35 66 -148 93 -213 50z m130 -65 c14 -13 25 -36 25 -50 0 -14
-11 -37 -25 -50 -38 -39 -86 -32 -110 15 -17 33 -10 69 19 92 30 25 63 22 91
-7z"/>
<path d="M3040 546 l0 -134 33 2 32 2 3 89 c3 94 13 114 59 115 37 0 53 -36
53 -122 0 -82 6 -94 45 -84 23 6 24 10 27 98 3 91 3 93 31 102 50 18 62 1 65
-100 3 -92 8 -104 50 -104 22 0 22 2 22 115 0 105 -2 116 -22 135 -26 24 -86
27 -129 5 -27 -14 -32 -14 -51 0 -27 18 -99 20 -116 3 -9 -9 -15 -9 -24 0 -7
7 -27 12 -45 12 l-33 0 0 -134z"/>
</g>
</svg>
